<svg xmlns="http://www.w3.org/2000/svg" viewBox="115 500 195 150">
  <defs>
    <g id="pie-base">
      <circle cx="0" cy="-55" r="16" fill="#D38033"/>
      <circle cx="27.5" cy="-47.6" r="16" fill="#D38033"/>
      <circle cx="47.6" cy="-27.5" r="16" fill="#D38033"/>
      <circle cx="55" cy="0" r="16" fill="#D38033"/>
      <circle cx="47.6" cy="27.5" r="16" fill="#D38033"/>
      <circle cx="27.5" cy="47.6" r="16" fill="#D38033"/>
      <circle cx="0" cy="55" r="16" fill="#D38033"/>
      <circle cx="-27.5" cy="47.6" r="16" fill="#D38033"/>
      <circle cx="-47.6" cy="27.5" r="16" fill="#D38033"/>
      <circle cx="-55" cy="0" r="16" fill="#D38033"/>
      <circle cx="-47.6" cy="-27.5" r="16" fill="#D38033"/>
      <circle cx="-27.5" cy="-47.6" r="16" fill="#D38033"/>
      <circle cx="0" cy="0" r="55" fill="#D38033"/>
      <circle cx="0" cy="0" r="48" fill="#F4C275"/>
      <circle cx="0" cy="0" r="44" fill="#F8CE8B"/>
    </g>
    <g id="pi-symbol">
      <path d="M -18 -14 L 18 -14" stroke="#4E2F1D" stroke-width="8" stroke-linecap="round"/>
      <path d="M -7 -14 L -7 6 C -7 14 -16 14 -16 14" fill="none" stroke="#4E2F1D" stroke-width="8" stroke-linecap="round" stroke-linejoin="round"/>
      <path d="M 7 -14 L 7 10 C 7 14 11 14 11 14" fill="none" stroke="#4E2F1D" stroke-width="8" stroke-linecap="round" stroke-linejoin="round"/>
    </g>
  </defs>

  <!-- POSE 3: SUCCESS / CELEBRATION -->
  <path d="M 192 627 L 185 637 L 195 642" fill="none" stroke="#4E2F1D" stroke-width="8" stroke-linecap="round" stroke-linejoin="round"/>
  <path d="M 228 627 L 235 637 L 225 642" fill="none" stroke="#4E2F1D" stroke-width="8" stroke-linecap="round" stroke-linejoin="round"/>
  <use href="#pie-base" x="210" y="575" />
  <use href="#pi-symbol" x="210" y="575" />
  <path d="M 152 575 Q 135 555 140 540" fill="none" stroke="#4E2F1D" stroke-width="6" stroke-linecap="round"/>
  <path d="M 268 575 Q 285 555 280 540" fill="none" stroke="#4E2F1D" stroke-width="6" stroke-linecap="round"/>
  <path d="M 180 570 Q 185 563 190 570" fill="none" stroke="#4E2F1D" stroke-width="4" stroke-linecap="round"/>
  <path d="M 230 570 Q 235 563 240 570" fill="none" stroke="#4E2F1D" stroke-width="4" stroke-linecap="round"/>
  <circle cx="178" cy="579" r="6" fill="#F28D8D"/>
  <circle cx="242" cy="579" r="6" fill="#F28D8D"/>
  <path d="M 204 579 Q 210 591 216 579 Z" fill="#4E2F1D"/>
  <path d="M 130 520 L 133 525 L 138 526 L 134 530 L 135 535 L 130 532 L 125 535 L 126 530 L 122 526 L 127 525 Z" fill="#FFD166"/>
  <path d="M 290 525 L 293 530 L 298 531 L 294 535 L 295 540 L 290 537 L 285 540 L 286 535 L 282 531 L 287 530 Z" fill="#06D6A0"/>
  <circle cx="150" cy="515" r="4" fill="#EF476F"/>
  <circle cx="270" cy="520" r="3.5" fill="#118AB2"/>
</svg>
